<?xml version="1.0" encoding="UTF-8"?>
<svg version="1.1" xmlns="http://www.w3.org/2000/svg" width="542" height="345">
<path d="M0 0 C0.33 50.82 0.66 101.64 1 154 C12.10527344 142.883125 23.21054687 131.76625 34.65234375 120.3125 C41.66574123 113.29399632 48.67926399 106.27561859 55.69335938 99.2578125 C66.83992461 88.10530314 77.98595762 76.95226533 89.12866211 65.79589844 C97.24218997 57.67242706 105.35745324 49.55069413 113.47483641 41.4310751 C117.77587855 37.12872528 122.07602548 32.82548895 126.37409782 28.52017212 C130.41427563 24.47323932 134.45675827 20.4286237 138.50107002 16.3858223 C139.98991873 14.89669702 141.47790182 13.40670574 142.96498108 11.91581345 C144.9854754 9.89039002 147.00897725 7.86802156 149.03330994 5.84643555 C149.62960313 5.24722951 150.22589633 4.64802347 150.84025902 4.03065968 C154.88587879 0 154.88587879 0 156 0 C156 113.52 156 227.04 156 344 C137.19 344 118.38 344 99 344 C98.67 277.01 98.34 210.02 98 141 C86.97851562 152.0446875 75.95703125 163.089375 64.6015625 174.46875 C57.63856971 181.44195559 50.67532686 188.41490843 43.7109375 195.38671875 C32.64420362 206.4653393 21.57853661 217.54501154 10.51953125 228.63134766 C2.46682331 236.70394727 -5.58935644 244.77306281 -13.64978087 252.83795786 C-17.92028943 257.11108098 -22.18900081 261.38596621 -26.45356369 265.6650238 C-30.46287086 269.68784825 -34.47678323 273.70601779 -38.49436378 277.72057915 C-39.97238377 279.19915193 -41.44867488 280.67945514 -42.92315102 282.16156197 C-44.92788643 284.17616702 -46.93860252 286.18460071 -48.95101929 288.19152832 C-49.54050869 288.78684341 -50.1299981 289.3821585 -50.73735082 289.99551344 C-54.77175758 294 -54.77175758 294 -57 294 C-57.33 243.51 -57.66 193.02 -58 141 C-71.69113281 155.6540625 -85.38226563 170.308125 -99.48828125 185.40625 C-108.3382357 194.68107989 -117.19729155 203.94368192 -126.10742188 213.16015625 C-130.79877869 218.01392412 -135.48744704 222.87026581 -140.17163086 227.73095703 C-140.75852351 228.33974083 -141.34541617 228.94852463 -141.95009345 229.57575643 C-150.16678767 238.10573909 -158.27632152 246.72660639 -166.30952142 255.42947066 C-180.12311563 270.3943723 -194.11682422 285.1621963 -208.48828125 299.59375 C-209.31830177 300.42857273 -209.31830177 300.42857273 -210.16509038 301.28026056 C-235.60526019 326.81885801 -259.66391037 350.59666142 -297.97612 350.91369629 C-313.61470143 350.60703762 -328.95585123 348.22313165 -344 344 C-340.17580784 339.43178703 -336.22278175 335.07810241 -332.00145245 330.87561131 C-331.13804434 330.01002304 -331.13804434 330.01002304 -330.25719365 329.12694815 C-328.33760956 327.2037294 -326.41450368 325.28407275 -324.49137878 323.36439514 C-323.09664385 321.9685074 -321.70212688 320.57240184 -320.3078087 319.17609781 C-316.48321291 315.34733091 -312.65550858 311.52168504 -308.82727778 307.69655311 C-304.69669604 303.56823414 -300.56899305 299.43703858 -296.44091797 295.30621338 C-288.35820423 287.21905308 -280.27278944 279.13459847 -272.18640282 271.05111087 C-265.61816524 264.48513075 -259.05090324 257.91817636 -252.48433876 251.35052299 C-252.01769746 250.88380531 -251.55105616 250.41708762 -251.07027421 249.93622697 C-249.17606781 248.04170924 -247.28186495 246.14718798 -245.3876679 244.2526609 C-227.62727288 226.4892083 -209.86396516 208.72867092 -192.09934948 190.96943938 C-176.30637481 175.18121484 -160.51599384 159.39040064 -144.7277832 143.59741211 C-126.991856 125.85613555 -109.25432122 108.11646881 -91.51417238 90.37941355 C-89.62497253 88.49053443 -87.73577696 86.60165106 -85.84658241 84.71276665 C-84.91698789 83.7833264 -83.98739337 82.85388615 -83.02962932 81.89628105 C-76.46328364 75.33080061 -69.89810279 68.76415676 -63.33336449 62.19706917 C-55.34325463 54.20416282 -47.35138212 46.21302404 -39.35720255 38.22418798 C-35.27486287 34.14448668 -31.19334583 30.06397097 -27.1139698 25.98130608 C-23.38646112 22.25083751 -19.65668818 18.5226491 -15.92502383 14.79633766 C-14.56900278 13.44144206 -13.21384141 12.08568545 -11.8595865 10.72902454 C-10.0317821 8.89821981 -8.20098699 7.07046168 -6.36934185 5.24350071 C-5.83301954 4.70483723 -5.29669722 4.16617375 -4.74412271 3.61118713 C-1.11415047 0 -1.11415047 0 0 0 Z " fill="#CC0000" transform="translate(386,0)"/>
<path d="M0 0 C18.81 0 37.62 0 57 0 C57.33 67.32 57.66 134.64 58 204 C71.76332031 189.27375 85.52664062 174.5475 99.70703125 159.375 C108.6025602 150.05460108 117.50719595 140.74641927 126.46289062 131.484375 C131.17817266 126.6066814 135.89076669 121.72641387 140.59887695 116.84179688 C141.18876854 116.23001414 141.77866013 115.6182314 142.38642722 114.98790979 C150.64554318 106.41549015 158.79754007 97.75214207 166.8732134 89.00683737 C180.75938058 73.96945773 194.82561462 59.129019 209.26953125 44.625 C209.82561988 44.0657099 210.38170851 43.50641979 210.95464832 42.9301815 C236.50234921 17.28412331 260.52379896 -6.62772198 299.01017761 -6.94775391 C314.64064838 -6.63971467 329.97064563 -4.24563279 345 0 C341.17121356 4.57407255 337.21240019 8.93224502 332.98583508 13.14000607 C332.4085413 13.71875328 331.83124753 14.2975005 331.23646 14.89378551 C329.31113261 16.82274772 327.38228316 18.74814769 325.45341492 20.67356873 C324.05455518 22.07358126 322.65591341 23.47381162 321.25747043 24.87424046 C317.42147312 28.71440897 313.58236714 32.55145637 309.74273479 36.38798988 C305.59988302 40.52857892 301.45990994 44.67204451 297.31956482 48.81513977 C289.21278763 56.92636356 281.10330934 65.0348816 272.99285927 73.14243268 C266.40507556 79.72795894 259.81826741 86.31445946 253.23215675 92.90165901 C252.7641291 93.36976305 252.29610146 93.83786708 251.81389115 94.32015608 C249.91405781 96.22030076 248.014228 98.12044897 246.114404 100.020603 C228.30117165 117.83689295 210.48502657 135.65026765 192.66757356 153.46233654 C176.82760623 169.29755374 160.99023259 185.1353606 145.1550293 200.9753418 C127.36636439 218.76935607 109.57609189 236.56176053 91.78320533 254.3515535 C89.88838851 256.24604959 87.99357563 258.14054964 86.09876442 260.03505135 C85.16640579 260.9672557 84.23404716 261.89946006 83.27343523 262.85991303 C76.68755278 269.44493024 70.10283546 276.03111058 63.51856041 282.61773491 C55.50466199 290.63442982 47.4890009 298.64935718 39.47103276 306.66198181 C35.37654149 310.7538347 31.28287284 314.84650203 27.19134521 318.94131851 C23.452734 322.68288961 19.71185851 326.42218058 15.96909163 330.15959454 C14.60903292 331.5185278 13.2498339 332.87832207 11.89154132 334.23902064 C10.05829113 336.07527115 8.22205016 337.90847516 6.38495922 339.74088192 C5.84703256 340.28114975 5.3091059 340.82141757 4.75487843 341.37805715 C1.11415047 345 1.11415047 345 0 345 C0 231.15 0 117.3 0 0 Z " fill="#CC0000" transform="translate(0,0)"/>
</svg>
